<?xml version="1.0" encoding="utf-8"?>
<!-- Generator: Adobe Illustrator 29.8.2, SVG Export Plug-In . SVG Version: 9.03 Build 0)  -->
<svg version="1.1" id="Layer_1" xmlns="http://www.w3.org/2000/svg" xmlns:xlink="http://www.w3.org/1999/xlink" x="0px" y="0px"
	 viewBox="0 0 506.19 317.25" style="enable-background:new 0 0 506.19 317.25;" xml:space="preserve">
<style type="text/css">
	.st0{fill:#653923;}
</style>
<g>
	<path class="st0" d="M322.01,73.22c-5.27-13.73-10.15-38.51-10.98-53.51c-0.22-3.95,2.88-17.13,5.96-19
		c2.69-1.64,8.12-0.21,10.05,2.26c3.74,8.5,9.27,17.62,12.48,26.26c3.32,8.93,4.29,19.01,6.69,27.31c0.4,1.39,7.24,10.17,8.67,12.35
		c1.69,2.57,1.51,5.99,5.82,7.11c0.9,0.23,6.86,1.26,7.18,1.09c0.23-0.12,0.44-1.76,1.17-2.27c18.08-12.46,13.11-12.7,19.93-32.12
		c2.94-8.39,5.99-16.61,10.04-24.46c1.75-3.38,6.61-12.36,9.08-14.42c4.07-3.4,5.75-2.34,9.92-1.58c-0.26,3.72,0.42,7.8-0.05,11.45
		c-2.16,16.62-12.61,31.65-21.31,45.65c-7.28,11.72-7.44,18.91-12.36,30.66c-0.52,1.24-2.09,1.14-2.27,1.94
		c-0.7,3.14,0.44,7.89-0.02,11.31c-0.99,2.7-0.53,4.21-1,6c-3.05,11.71-3.76,16.77-5.01,28.49c-0.63,5.93-3.09,15.31-2.75,20.76
		c0.38,6.1,7.85,16.2,10.28,22.73c3.33,8.95,4.21,20.26,9.48,28.02c0.94,3.72,6.43,20.03,9.67,20.9c3.26,0.87,5.77-7.18,6.81-9.92
		c4.43-11.61,7.48-21.23,10.82-33.18c2.23-7.99,6.2-18.27,10.7-24.8c2.11-3.06,10.43-13.28,13.74-13.85
		c1.42-0.24,8.67,0.84,10.29,1.32c7.25,2.13,6.17,7.09,8.98,11.82c10.73,18.06,11.87,28.43,18.33,47.88
		c3.98,11.99,12.45,21.86,13.76,35.02l8.91,12.81c0.27,1.72,1.7,3.74,0.99,6c-2.16,0.04-5.13-0.27-6.92-1.57
		c-8.12-5.91-19.32-39.79-25.09-50.72c-0.36-0.67-1.78-0.74-1.81-0.85c-0.2-0.56,0.97-2.15,0.87-3.35
		c-0.27-3.52-8.76-23.65-10.85-28.2c-2.51-5.47-6.73-10.88-8.46-17.04c-6.55-2.63-8.44-1.5-12.59,3.39
		c-11.63,13.7-14.5,31.9-18.62,48.38c-1.03,4.13-7.27,12.09-8.95,17.07c-0.62,1.84-0.03,4.14-0.65,6.27
		c-2.26,7.69-5.51,13.25-12.95,6.17c-8.88-8.45-15.95-34.61-20.46-46.54c-1.09-2.88-4.1-11.29-5.51-13.24
		c-1.15-1.59-4.28-0.72-5.91-3.35c-2.61-4.2-2.97-16.94-5.29-19.23c-0.54-0.53-1.33-0.06-1.81-0.17c-0.31-0.08-0.68,0.07-1,0
		c-0.93-0.19-2.69-1-3-1c-2.51-2.56-2.14-5.69-2-9l10,1.01c0.53-12.74,1.84-25.61,4-38c0.11-0.63-0.11-1.37,0-2
		c0.39-2.23,2.25-5.18,2.77-7.74c1.03-5.12,1.11-11.9,2.23-17.26c-5.05,1.8-9.58,2.45-14.99,2c-1.77-2.04-3.43-1.33-4.71-2.3
		c-3.54-2.68-9.24-13.62-10.29-17.7c-0.37-1.46-0.98-1.89-1-2c-0.13-0.61,0.13-1.4,0-2c-1.01-4.73-3.51-25.38-4.89-27.42
		c-0.85-1.25-2.9-0.39-4.1-0.57c-1.09,2.63,2.05,1.72,2.05,2.55c-0.02,3.93-0.64,7.91-0.05,12.44c-1.55-1.52-2.79-4-3.47-6.03
		c-2.72-8.06-3.95-19.41-8.32-26.68c-0.76-1.26-1.69-2.87-3.2-3.29c0.2,3.07-0.38,6.43,0.04,9.44
		c3.39,24.13,11.46,53.56,20.95,75.55c0.12,0.28-0.12,0.72,0,1c0.68,1.54,1.24,3.52,2,5c-2.49,2.63-1,6.74,3,6
		c0.32,0.55,0.46,1.17,1,2c3.17,4.86,5.45,5.3,11,6c0.46,7.32,1.4,11.38-7.44,9.94c-6.09-0.99-14.78-14.17-17.41-19.58
		c-1.64-3.37-3.97-8.86-5.14-12.36c-0.31-0.93-0.91-1.7-1-2c-1.19-3.78,0.13-6.63-3-12c-0.09-0.98,0.13-2.04,0-3
		c-0.23-1.74-0.7-2.02-1-3C323.29,75.89,322.7,75.01,322.01,73.22z"/>
	<path class="st0" d="M8.01,114.22c6.07,5.34,4.09,7.12,4.37,13.33c0.38,8.36,1.3,15.21,0.63,23.67c-0.51,6.35,0.46,5.61,0.92,10.58
		c0.46,5.02-1.02,10.81,1.08,15.42c0.02,1.95-0.19,4.11,0,6c0.04,0.46,0.53,0.9,1,1c0.71,4.9-0.38,11.27,0.01,16.49
		c0.63,8.33,2.38,16.84,2.99,25.51c-1.66,2.02-1.71,7.79,0,10c0.25,5.8,1.55,8.21,2.06,12.46c0.44,3.65-1.45,7.06-0.05,10.54
		c7.16-10.64,14.31-22.53,20.39-34.1c7.65-14.55,14.04-29.5,21.6-43.9c2.81-0.64,8.85-2.8,8,1c-2.5,3.51-2.77,9.53-3.14,9.92
		c-0.38,0.4-2.17-0.49-2.9,0.74c-1.46,2.46-1.77,7.68-2.77,10.02c-3.87,9.07-11.7,20.25-16.38,29.64
		c-3.66,7.34-20.97,40.45-21.77,45.22c-1.35,8.06-0.18,9.65,7.46,10.44c12.43,1.29,20.15-5.7,31.21-8.76
		c4.92-1.36,3.45,0.44,8.51-2.54c8.35-4.93,17.9-3.65,27.03-5.92c9.54-2.37,19.3-8.76,29.72-7.78c-1.81-4.45,0.68-8.53,1.52-12.97
		c1.01-5.31,1.86-10.56,2.48-16.03l0.98-0.5l-0.98-0.5c0.08-0.93-0.21-2.31,0-3l1-1c1.35-2.36,1.49-0.06,2-5c4.2-1.81,1.95-4.67,2-6
		c0.03-0.66-0.01-1.33,0-2c5.1-5.16,7.28-12.5,10.64-18.86c1.95-3.7,5.11-5.87,5.36-11.14c4.1-3.96,7.84-8.92,14.52-8.83
		c3.09,0.04,7.96,3.65,8.33,6.51c0.17,1.28-1.74,2.35-1.83,3.82c-0.12,2.09,2.31,3.5,2.67,5.17c1.31,6.16-5.57,26.67-8.5,33.03
		c-1.68,3.65-13.17,21.35-15.67,23.33c-1.86,1.47-13.13,7.01-13.53,7.72c-3.65,6.56,0.54,20.51,3.63,27.15
		c1.46,3.15,5.97,9.45,9.01,10.99c2.7,1.38,4.87,0.82,7.43,1.57c1.54,0.45,2.78,2.54,4.45,2.54c1.91,0,16.54-10.17,20.5-10.49
		c2.75-4.58,6.59-9.04,10-12.5c8.44-8.55,8.64-8.12,15.47-19.03c0.96-1.53,1.12-3.09,3.53-2.97c-4.73,12.25-8.96,23.4-16.99,33.51
		c-6.75,8.49-11.4,15.54-24,14.5c-1.65,2.99,5.3,1.29,2.99,3.98c-0.21,0.24-5.22,2.71-5.7,2.81c-8.95,2.04-20.7-2.09-27.34-8.25
		c-4.53-4.2-10.98-17.48-12.53-23.47c-0.31-1.2-0.56-10.53-1.91-10.07c-6.13,1.75-10.19,6.8-15.81,9.19
		c-12.08,5.14-26.2,7.78-38.92,12.08c-9.15,3.09-27.43,12.77-36.2,11.62c-3.68-0.48-14.88-7.35-13.4,1.35
		c0.9,5.27,6.77,4.96,4.82,12.02c-0.07,0.25-3.35,3.7-3.6,3.73c-9.94,0.94-10.38-19.15-11.39-26.51c-2.88-21-2.85-41.96-4.2-63
		c-1.38-21.59-2.16-44.73-4.72-66.07c-0.23-1.89-1.86-0.91-2.15-2.86c-0.87-5.85,1.94-5.59,2.09-6.25c0.85-3.8-4.3-19.61-4.01-20.67
		c0.19-0.69,1.78-0.57,1.97-1.33c1.23-5.02-2.38-10.96,2.03-16.32C5.33,114.16,6.68,114.19,8.01,114.22z M141.02,243.22
		c1.85-1.57,4.28-2.79,5.98-4.51c6.05-6.08,17.42-26.13,18.96-34.04c0.91-4.69,0.74-11.56,1.03-16.46c-2.33,2.07-5.05,5.07-6.99,7.5
		c-7.17,8.98-16.31,28.22-18.54,39.46C140.92,237.87,140.86,240.48,141.02,243.22z"/>
	<path class="st0" d="M232.01,232.22c-3.19,7.74,3,14.52,2.03,22.29l16.39,20.78c2.01,1.28,7.73,1.58,9.59,0.44
		c1.13-0.69,1.54-3.27,2.54-4.46c18.71-22.1,25.67-51.32,36-77.99c1.68-5.36-3.94-17.69,2.47-20.56c1.65-0.74,6.19-0.77,6.97,1.23
		c2.39,6.17-1.43,18.65-0.99,25.75c0.59,9.56,5.73,19.31,7.03,28.99c0.28,2.05-0.21,4.42-0.04,6.53l-4.99-2
		c-0.41-5.47-2.95-7.07-4-11c-1.34-4.98,1.36-5.83-3.98-7.99c-2.38,2.78-1.92,5.68-3.08,8.43c-5.79,13.76-11.64,27.63-18.13,40.86
		c-2.04,4.16-3.07,7.63-6.09,11.4c-4.56,1.4-8.55,10-11.93,11.55c-4.23,1.95-12.99-0.24-16.72-2.83
		c-2.78-1.93-14.11-16.95-16.07-20.43c-4.74-8.41-5.94-17.69-9-26c-0.32-0.88,0.23-2.84-0.01-3.99c-2.3-0.6-4.41,3.55-4.07,5.39
		c0.19,1.01,1.97,0.49,2.07,0.61c0.08,0.09,0.03,1.49,0,2c-5.99-0.1-4.59,5.89-6.3,8.71c-3.79,6.28-10.42,14.31-14.7,19.29
		c0.72-6.79,5.5-11.88,8.39-18.11c5.13-11.03,12.33-28.84,15.18-40.82c1.25-5.25,0.94-11.85,2.72-17.27c0.2-0.6,2.52-5.57,2.78-5.77
		c0.42-0.32,6.2,1.35,7.03,2.36c1.62,1.97,0.57,4.57,0.9,6.61c-3.51,1.83-1.61,7.07-2.08,10.42c-0.91,6.52-0.47,8.57-0.82,14.09
		c-0.29,4.59-3.75,3.37-0.1,10.49C231.2,231.59,231.83,231.88,232.01,232.22z"/>
	<path class="st0" d="M349.01,178.22c5.32-1.72,4.18,3.38,5.04,3.99c0.83,0.59,4.4-1.73,5.96,0.01
		c6.27,20.71,8.04,41.86,10.04,63.46c0.26,2.76-0.25,5.76-0.04,8.55l-7.86-0.14c-2.37-12.77-5.14-25.16-4.22-38.28
		c-4.31-8.79-3.15-19.04-5.16-27.84C351.91,184.21,349.78,182.15,349.01,178.22z"/>
</g>
</svg>
